<?xml version="1.0" encoding="UTF-8" standalone="no"?>
<!DOCTYPE svg PUBLIC "-//W3C//DTD SVG 1.1//EN" "http://www.w3.org/Graphics/SVG/1.1/DTD/svg11.dtd">
<svg width="100%" height="100%" viewBox="0 0 123 123" version="1.1"
    xmlns="http://www.w3.org/2000/svg" xmlns:xlink="http://www.w3.org/1999/xlink"
    xml:space="preserve">
    <path d="M64.8,118.8l-6.72,0l0,-60l6.72,0l0,60Z" style="fill:url(#_Linear1);"/>
    <path d="M53.16,118.8l-6.72,0l0,-50.88l6.72,0l0,50.88Z" style="fill:url(#_Linear2);"/>
    <path d="M76.44,118.8l-6.72,0l0,-50.88l6.72,0l0,50.88Z" style="fill:url(#_Linear3);"/>
    <path d="M116.4,56.52c1.66,0 3,-1.34 3,-3c0,-1.66 -1.34,-3 -3,-3c-26.65,-0 -39.88,-11.27 -53.15,-22.45c-14.21,-11.98 -28.46,-23.87 -57.01,-23.87c-1.66,0 -3,1.34 -3,3c0,1.66 1.34,3 3,3c26.65,0 39.88,11.27 53.15,22.45c14.21,11.98 28.46,23.87 57.01,23.87Z" style="fill:url(#_Linear4);"/>
    <path d="M116.4,33.33c1.66,-0 3,1.34 3,3c0,1.66 -1.34,3 -3,3c-26.65,0 -39.88,11.27 -53.15,22.45c-14.21,11.98 -28.46,23.87 -57.01,23.87c-1.66,0 -3,-1.34 -3,-3c0,-1.66 1.34,-3 3,-3c26.65,0 39.88,-11.27 53.15,-22.45c14.21,-11.98 28.46,-23.87 57.01,-23.87Z" style="fill:url(#_Linear5);"/>
    <path d="M6.24,24.77c-1.66,-0 -3,-1.34 -3,-3c0,-1.66 1.34,-3 3,-3c28.55,0 42.8,11.89 57.01,23.87c13.27,11.18 26.49,22.45 53.15,22.45c1.66,0 3,1.34 3,3c0,1.66 -1.34,3 -3,3c-28.55,0 -42.8,-11.89 -57.01,-23.87c-6.77,-5.71 -13.54,-11.44 -22.08,-15.69c-8.19,-4.07 -18.02,-6.77 -31.06,-6.77Z" style="fill:url(#_Linear6);"/>
    <path d="M6.24,65.09c-1.66,0 -3,1.34 -3,3c0,1.66 1.34,3 3,3c28.55,-0 42.8,-11.89 57.01,-23.87c13.27,-11.18 26.49,-22.45 53.15,-22.45c1.66,0 3,-1.34 3,-3c0,-1.66 -1.34,-3 -3,-3c-28.55,0 -42.8,11.89 -57.01,23.87c-6.77,5.71 -13.54,11.44 -22.08,15.69c-8.19,4.07 -18.02,6.77 -31.06,6.77Z" style="fill:url(#_Linear7);"/>
    <path d="M116.4,4.2c1.66,-0 3,1.34 3,3c0,1.66 -1.34,3 -3,3c-26.65,0 -39.88,11.27 -53.15,22.45c-14.21,11.98 -28.46,23.87 -57.01,23.87c-1.66,0 -3,-1.34 -3,-3c0,-1.66 1.34,-3 3,-3c26.65,0 39.88,-11.27 53.15,-22.45c14.21,-11.98 28.46,-23.87 57.01,-23.87Z" style="fill:url(#_Linear8);"/>
    <path d="M116.4,85.65c1.66,0 3,-1.34 3,-3c0,-1.66 -1.34,-3 -3,-3c-26.65,-0 -39.88,-11.27 -53.15,-22.45c-14.21,-11.98 -28.46,-23.87 -57.01,-23.87c-1.66,0 -3,1.34 -3,3c0,1.66 1.34,3 3,3c26.65,0 39.88,11.27 53.15,22.45c14.21,11.98 28.46,23.87 57.01,23.87Z" style="fill:url(#_Linear9);"/>
    <defs>
        <linearGradient id="_Linear1" x1="0" y1="0" x2="1" y2="0" gradientUnits="userSpaceOnUse" gradientTransform="matrix(0,60,-6.72,-0,64.8,58.8)"><stop offset="0" style="stop-color:#33254f;stop-opacity:1"/><stop offset="0.5" style="stop-color:#4f39f6;stop-opacity:1"/><stop offset="1" style="stop-color:#4f39f6;stop-opacity:1"/></linearGradient>
        <linearGradient id="_Linear2" x1="0" y1="0" x2="1" y2="0" gradientUnits="userSpaceOnUse" gradientTransform="matrix(0,50.88,-6.72,-0,53.16,67.92)"><stop offset="0" style="stop-color:#33254f;stop-opacity:1"/><stop offset="0.5" style="stop-color:#4f39f6;stop-opacity:1"/><stop offset="1" style="stop-color:#4f39f6;stop-opacity:1"/></linearGradient>
        <linearGradient id="_Linear3" x1="0" y1="0" x2="1" y2="0" gradientUnits="userSpaceOnUse" gradientTransform="matrix(0,50.88,-6.72,-0,76.44,67.92)"><stop offset="0" style="stop-color:#33254f;stop-opacity:1"/><stop offset="0.5" style="stop-color:#4f39f6;stop-opacity:1"/><stop offset="1" style="stop-color:#4f39f6;stop-opacity:1"/></linearGradient>
        <linearGradient id="_Linear4" x1="0" y1="0" x2="1" y2="0" gradientUnits="userSpaceOnUse" gradientTransform="matrix(-116.16,0,0,-52.32,119.4,30.36)"><stop offset="0" style="stop-color:#4f39f6;stop-opacity:1"/><stop offset="0.13" style="stop-color:#4f39f6;stop-opacity:1"/><stop offset="1" style="stop-color:#3a1288;stop-opacity:1"/></linearGradient>
        <linearGradient id="_Linear5" x1="0" y1="0" x2="1" y2="0" gradientUnits="userSpaceOnUse" gradientTransform="matrix(-116.16,0,0,52.32,119.4,59.492208)"><stop offset="0" style="stop-color:#4f39f6;stop-opacity:1"/><stop offset="0.34" style="stop-color:#4f39f6;stop-opacity:1"/><stop offset="1" style="stop-color:#3a1288;stop-opacity:1"/></linearGradient>
        <linearGradient id="_Linear6" x1="0" y1="0" x2="1" y2="0" gradientUnits="userSpaceOnUse" gradientTransform="matrix(116.16,0,0,52.32,3.24,44.926104)"><stop offset="0" style="stop-color:#3f1690;stop-opacity:1"/><stop offset="1" style="stop-color:#4f39f6;stop-opacity:1"/></linearGradient>
        <linearGradient id="_Linear7" x1="0" y1="0" x2="1" y2="0" gradientUnits="userSpaceOnUse" gradientTransform="matrix(116.16,0,0,-52.32,3.24,44.926104)"><stop offset="0" style="stop-color:#3a1288;stop-opacity:1"/><stop offset="0.56" style="stop-color:#4f39f6;stop-opacity:1"/><stop offset="1" style="stop-color:#4f39f6;stop-opacity:1"/></linearGradient>
        <linearGradient id="_Linear8" x1="0" y1="0" x2="1" y2="0" gradientUnits="userSpaceOnUse" gradientTransform="matrix(-116.16,0,0,52.32,119.4,30.36)"><stop offset="0" style="stop-color:#4f39f6;stop-opacity:1"/><stop offset="0.51" style="stop-color:#4f39f6;stop-opacity:1"/><stop offset="1" style="stop-color:#3a1288;stop-opacity:1"/></linearGradient>
        <linearGradient id="_Linear9" x1="0" y1="0" x2="1" y2="0" gradientUnits="userSpaceOnUse" gradientTransform="matrix(-116.16,0,0,-52.32,119.4,59.492208)"><stop offset="0" style="stop-color:#3419ff;stop-opacity:1"/><stop offset="0.78" style="stop-color:#4f39f6;stop-opacity:1"/><stop offset="1" style="stop-color:#3a1288;stop-opacity:1"/></linearGradient>
    </defs>
</svg>